<svg width="299" height="373" viewBox="0 0 299 373" fill="none" xmlns="http://www.w3.org/2000/svg">
<path d="M297.5 157.12C297.5 240.824 231.206 308.62 149.5 308.62C67.7944 308.62 1.5 240.824 1.5 157.12C1.5 136.517 11.5519 118.303 26.6368 102.103C41.7256 85.8995 61.7301 71.8427 81.3573 59.5795C90.0996 54.1173 98.7461 49.0235 106.838 44.2567C107.824 43.6757 108.802 43.0995 109.771 42.5281C118.676 37.2766 126.829 32.4211 133.515 27.9358C140.174 23.4693 145.512 19.2843 148.693 15.3487C150.289 13.374 151.42 11.3682 151.844 9.3357C152.278 7.25144 151.949 5.22337 150.775 3.32933C150.332 2.61452 150.108 2.09469 150.018 1.74571C149.998 1.66997 149.987 1.60967 149.98 1.56284C149.982 1.56239 149.984 1.56193 149.986 1.56148C150.22 1.50183 150.642 1.46892 151.312 1.54165C154.047 1.83895 159.007 3.65367 165.656 6.941C178.834 13.4568 197.919 25.3815 217.512 40.738C237.104 56.0939 257.139 74.831 272.262 94.9509C287.403 115.095 297.5 136.465 297.5 157.12ZM149.855 1.60707C149.855 1.60702 149.856 1.60609 149.859 1.6044C149.856 1.60628 149.855 1.60712 149.855 1.60707Z" fill="black" stroke="white" stroke-width="3"/>
<path d="M114.91 148.244C114.966 148.687 115.019 149.14 115.068 149.603C113.949 149.245 112.903 148.868 111.936 148.473C109.882 147.634 108.38 146.786 107.37 145.999C106.348 145.202 106.081 144.666 106.024 144.503C106.024 144.502 106.023 144.5 106.022 144.497C106.006 144.46 105.939 144.307 106.165 143.808C106.466 143.147 107.238 142.036 109.007 140.535C110.673 139.122 111.673 138.725 112.072 138.632C112.342 138.907 112.881 139.658 113.454 141.321C114.045 143.037 114.543 145.342 114.91 148.244ZM111.781 278C111.871 277.506 111.965 276.985 112.064 276.436C112.916 271.696 114.095 264.96 115.406 256.966C118.024 240.99 121.174 219.94 123.277 199.747C124.66 186.467 125.615 173.347 125.624 162.219C133.124 163.402 141.415 164.031 149.57 164.134C158.388 164.245 167.406 163.745 175.447 162.539C175.539 173.294 176.424 185.841 177.678 198.573C179.686 218.949 182.693 240.278 185.193 256.489C186.444 264.6 187.57 271.443 188.383 276.259C188.487 276.873 188.585 277.454 188.679 278H111.781ZM187.686 149.304C187.09 149.536 186.466 149.761 185.815 149.977C185.901 148.915 186.003 147.9 186.121 146.934C186.472 144.059 186.948 141.808 187.505 140.166C187.859 139.125 188.186 138.508 188.409 138.165C188.92 138.42 189.817 139.008 191.115 140.286C194.524 143.641 193.974 145.002 193.929 145.113C193.928 145.115 193.927 145.117 193.927 145.118C193.638 145.875 192.182 147.548 187.686 149.304Z" stroke="#41095B" stroke-width="10"/>
<path d="M114.91 148.244C114.966 148.687 115.019 149.14 115.068 149.603C113.949 149.245 112.903 148.868 111.936 148.473C109.882 147.634 108.38 146.786 107.37 145.999C106.348 145.202 106.081 144.666 106.024 144.503C106.024 144.502 106.023 144.5 106.022 144.497C106.006 144.46 105.939 144.307 106.165 143.808C106.466 143.147 107.238 142.036 109.007 140.535C110.673 139.122 111.673 138.725 112.072 138.632C112.342 138.907 112.881 139.658 113.454 141.321C114.045 143.037 114.543 145.342 114.91 148.244ZM111.781 278C111.871 277.506 111.965 276.985 112.064 276.436C112.916 271.696 114.095 264.96 115.406 256.966C118.024 240.99 121.174 219.94 123.277 199.747C124.66 186.467 125.615 173.347 125.624 162.219C133.124 163.402 141.415 164.031 149.57 164.134C158.388 164.245 167.406 163.745 175.447 162.539C175.539 173.294 176.424 185.841 177.678 198.573C179.686 218.949 182.693 240.278 185.193 256.489C186.444 264.6 187.57 271.443 188.383 276.259C188.487 276.873 188.585 277.454 188.679 278H111.781ZM187.686 149.304C187.09 149.536 186.466 149.761 185.815 149.977C185.901 148.915 186.003 147.9 186.121 146.934C186.472 144.059 186.948 141.808 187.505 140.166C187.859 139.125 188.186 138.508 188.409 138.165C188.92 138.42 189.817 139.008 191.115 140.286C194.524 143.641 193.974 145.002 193.929 145.113C193.928 145.115 193.927 145.117 193.927 145.118C193.638 145.875 192.182 147.548 187.686 149.304Z" stroke="#41095B" stroke-opacity="0.5" stroke-width="10"/>
<path d="M108.778 275C108.956 273.917 109.17 272.601 109.415 271.077C110.17 266.378 111.215 259.698 112.377 251.771C114.698 235.923 117.488 215.062 119.349 195.065C120.663 180.944 121.528 167.125 121.411 155.773C128.398 157.127 136.315 157.85 144.132 157.96C152.534 158.078 161.092 157.492 168.522 156.107C168.502 167.12 169.307 180.357 170.5 193.912C172.277 214.094 174.941 235.235 177.157 251.318C178.266 259.363 179.264 266.149 179.985 270.925C180.225 272.515 180.435 273.883 180.607 275H108.778ZM178.369 147.072C177.248 147.562 176.02 148.016 174.698 148.433C174.799 146.328 174.946 144.364 175.143 142.564C175.464 139.623 175.908 137.221 176.463 135.392C177.04 133.493 177.639 132.544 178.045 132.158C178.131 132.077 178.191 132.037 178.222 132.02C178.238 132.011 178.248 132.006 178.252 132.004C178.257 132.003 178.259 132.002 178.26 132.002C178.261 132.002 178.263 132.001 178.269 132.001C178.275 132 178.287 132 178.307 132.001C178.346 132.003 178.425 132.012 178.55 132.052C179.137 132.235 180.247 132.903 181.893 134.715C185.102 138.249 185.265 140.491 184.803 141.841C184.25 143.46 182.344 145.336 178.369 147.072ZM114.771 143.856C114.921 145.177 115.043 146.581 115.139 148.06C113.352 147.507 111.72 146.899 110.277 146.239C106.344 144.441 104.582 142.607 104.134 141.17C103.79 140.071 103.928 138.076 107.302 134.874C108.989 133.272 110.108 132.749 110.702 132.632C111.047 132.565 111.254 132.594 111.623 132.966C112.139 133.488 112.785 134.579 113.386 136.531C113.97 138.43 114.435 140.884 114.771 143.856Z" stroke="#41095B" stroke-width="6"/>
<path d="M108.778 275C108.956 273.917 109.17 272.601 109.415 271.077C110.17 266.378 111.215 259.698 112.377 251.771C114.698 235.923 117.488 215.062 119.349 195.065C120.663 180.944 121.528 167.125 121.411 155.773C128.398 157.127 136.315 157.85 144.132 157.96C152.534 158.078 161.092 157.492 168.522 156.107C168.502 167.12 169.307 180.357 170.5 193.912C172.277 214.094 174.941 235.235 177.157 251.318C178.266 259.363 179.264 266.149 179.985 270.925C180.225 272.515 180.435 273.883 180.607 275H108.778ZM178.369 147.072C177.248 147.562 176.02 148.016 174.698 148.433C174.799 146.328 174.946 144.364 175.143 142.564C175.464 139.623 175.908 137.221 176.463 135.392C177.04 133.493 177.639 132.544 178.045 132.158C178.131 132.077 178.191 132.037 178.222 132.02C178.238 132.011 178.248 132.006 178.252 132.004C178.257 132.003 178.259 132.002 178.26 132.002C178.261 132.002 178.263 132.001 178.269 132.001C178.275 132 178.287 132 178.307 132.001C178.346 132.003 178.425 132.012 178.55 132.052C179.137 132.235 180.247 132.903 181.893 134.715C185.102 138.249 185.265 140.491 184.803 141.841C184.25 143.46 182.344 145.336 178.369 147.072ZM114.771 143.856C114.921 145.177 115.043 146.581 115.139 148.06C113.352 147.507 111.72 146.899 110.277 146.239C106.344 144.441 104.582 142.607 104.134 141.17C103.79 140.071 103.928 138.076 107.302 134.874C108.989 133.272 110.108 132.749 110.702 132.632C111.047 132.565 111.254 132.594 111.623 132.966C112.139 133.488 112.785 134.579 113.386 136.531C113.97 138.43 114.435 140.884 114.771 143.856Z" stroke="#50345C" stroke-opacity="0.5" stroke-width="6"/>
<path d="M112.337 268.5C112.528 267.447 112.765 266.131 113.04 264.584C113.812 260.232 114.882 254.045 116.069 246.704C118.444 232.026 121.298 212.706 123.202 194.186C124.563 180.943 125.453 167.988 125.306 157.401C132.562 158.727 140.888 159.438 149.135 159.543C157.98 159.656 166.957 159.074 174.644 157.715C174.602 167.991 175.431 180.403 176.667 193.118C178.485 211.809 181.209 231.39 183.477 246.285C184.611 253.736 185.632 260.02 186.37 264.443C186.638 266.053 186.869 267.417 187.054 268.5H112.337ZM184.457 149.96C183.054 150.514 181.493 151.019 179.799 151.474C179.903 149.343 180.061 147.363 180.279 145.56C180.607 142.837 181.062 140.608 181.632 138.908C182.218 137.16 182.841 136.229 183.333 135.806C183.67 135.516 183.971 135.411 184.568 135.58C185.349 135.8 186.57 136.511 188.259 138.195C191.619 141.545 191.77 143.652 191.295 144.909C190.697 146.494 188.624 148.311 184.457 149.96ZM119.657 146.757C119.827 148.122 119.963 149.582 120.066 151.128C117.881 150.548 115.898 149.899 114.17 149.183C110.051 147.478 108.128 145.7 107.639 144.285C107.287 143.263 107.413 141.372 110.963 138.321C112.704 136.825 113.957 136.243 114.772 136.099C115.428 135.983 115.879 136.123 116.361 136.563C116.954 137.105 117.624 138.161 118.237 139.962C118.837 141.728 119.313 144.005 119.657 146.757Z" stroke="#AD00FF" stroke-opacity="0.5" stroke-width="5"/>
<path d="M111.416 269C111.61 267.863 111.867 266.336 112.176 264.474C112.895 260.124 113.892 253.941 114.999 246.603C117.213 231.931 119.872 212.624 121.646 194.121C122.939 180.631 123.772 167.474 123.597 156.83C130.433 158.2 138.332 158.936 146.162 159.043C154.55 159.158 163.054 158.553 170.284 157.148C170.213 167.491 170.989 180.101 172.164 193.056C173.858 211.732 176.397 231.3 178.511 246.19C179.568 253.637 180.52 259.919 181.207 264.34C181.507 266.265 181.756 267.838 181.942 269H111.416ZM179.177 150.443C177.748 151.049 176.145 151.596 174.398 152.083C174.495 149.692 174.652 147.482 174.876 145.485C175.186 142.737 175.616 140.464 176.164 138.71C176.726 136.912 177.346 135.88 177.888 135.381C178.291 135.008 178.651 134.904 179.258 135.088C180.045 135.327 181.231 136.079 182.832 137.791C185.991 141.168 186.338 143.519 185.772 145.127C185.135 146.938 183.045 148.802 179.177 150.443ZM118.995 146.679C119.178 148.246 119.318 149.937 119.419 151.738C117.205 151.126 115.203 150.434 113.472 149.665C109.654 147.971 107.693 146.142 107.161 144.487C106.71 143.083 107.076 140.956 110.397 137.896C112.05 136.372 113.265 135.757 114.079 135.602C114.74 135.477 115.236 135.625 115.768 136.146C116.396 136.762 117.058 137.911 117.645 139.762C118.222 141.58 118.672 143.902 118.995 146.679Z" stroke="white" stroke-opacity="0.2" stroke-width="4"/>
<path d="M83 293C83 278.088 95.0883 266 110 266H190C204.912 266 217 278.088 217 293V346C217 360.912 204.912 373 190 373H110C95.0883 373 83 360.912 83 346V293Z" fill="#B9B9B9"/>
</svg>
