<svg version="1.1" id="Layer_1" xmlns="http://www.w3.org/2000/svg" xmlns:xlink="http://www.w3.org/1999/xlink" x="0px" y="0px" viewBox="0 0 1200 1200" enable-background="new 0 0 1200 1200" xml:space="preserve">
<g>
    <g>
                <path fill="#8900EE" d="M754.119,824.402H445.881L395.84,254.16C395.84,141.406,600,50,600,50h0c0,0,204.16,91.406,204.16,204.16
                        L754.119,824.402z" style="fill: rgb(0, 0, 0);"></path>
                <path fill="#481263" d="M816.736,824.402H383.264c-4.801,0-8.692-3.892-8.692-8.692v-27.802c0-4.801,3.892-8.692,8.692-8.692
                        h433.472c4.801,0,8.692,3.892,8.692,8.692v27.802C825.428,820.51,821.536,824.402,816.736,824.402z"></path>
                <path fill="#481263" d="M816.736,1086.53H383.264c-4.801,0-8.692-3.892-8.692-8.692v-27.802c0-4.801,3.892-8.692,8.692-8.692
                        h433.472c4.801,0,8.692,3.892,8.692,8.692v27.802C825.428,1082.639,821.536,1086.53,816.736,1086.53z"></path>
                <path fill="#481263" d="M781.099,933.058H418.901c-4.801,0-8.692-3.892-8.692-8.692v-27.802c0-4.801,3.892-8.692,8.692-8.692
                        h362.198c4.801,0,8.692,3.892,8.692,8.692v27.802C789.791,929.167,785.899,933.058,781.099,933.058z"></path>
                    <rect x="448.893" y="824.402" fill="#450077" width="302.214" height="63.47"></rect>
                <path fill="#450077" d="M726.689,1150H473.311c-13.486,0-24.418-10.932-24.418-24.418v-39.051h302.214v39.051
                        C751.107,1139.068,740.174,1150,726.689,1150z"></path>
                    <g>
                        <path fill="#450077" d="M804.12,1041.343H395.88c-11.504,0-20.83-9.326-20.83-20.83v-66.625c0-11.504,9.326-20.83,20.83-20.83
                                H804.12c11.504,0,20.83,9.326,20.83,20.83v66.625C824.95,1032.017,815.624,1041.343,804.12,1041.343z"></path>
                            <circle fill="#481263" cx="448.098" cy="987.201" r="28.506"></circle>
                        <path fill="#8900EE" d="M448.098,1008.614c-11.808,0-21.415-9.605-21.415-21.414c0-11.807,9.608-21.412,21.415-21.412
                                c11.808,0,21.414,9.605,21.414,21.412C469.512,999.009,459.906,1008.614,448.098,1008.614z" style="fill: rgb(0, 0, 0);"></path>
                            <circle fill="#481263" cx="600" cy="987.201" r="28.506"></circle>
                        <path fill="#8900EE" d="M600,1008.614c-11.808,0-21.414-9.605-21.414-21.414c0-11.807,9.606-21.412,21.414-21.412
                                s21.413,9.605,21.413,21.412C621.413,999.009,611.808,1008.614,600,1008.614z" style="fill: rgb(0, 0, 0);"></path>
                            <circle fill="#481263" cx="751.902" cy="987.201" r="28.506"></circle>
                        <path fill="#8900EE" d="M751.903,1008.614c-11.809,0-21.414-9.605-21.414-21.414c0-11.807,9.605-21.412,21.414-21.412
                                c11.807,0,21.412,9.605,21.412,21.412C773.315,999.009,763.71,1008.614,751.903,1008.614z" style="fill: rgb(0, 0, 0);"></path>
                        </g>
                        <g>
                        <path fill="#450077" d="M553.711,779.215l-64.633-388.968c13.06-4.829,22.388-17.356,22.388-32.095
                                c0-18.915-15.333-34.248-34.248-34.248c-18.915,0-34.248,15.333-34.248,34.248c0,17.9,13.739,32.572,31.243,34.096l64.3,386.967
                                H553.711z"></path>
                        <path fill="#450077" d="M646.289,779.215l64.633-388.968c-13.06-4.829-22.388-17.356-22.388-32.095
                                c0-18.915,15.333-34.248,34.248-34.248c18.915,0,34.248,15.333,34.248,34.248c0,17.9-13.739,32.572-31.243,34.096l-64.3,386.967
                                H646.289z"></path>
                        </g>
                        <g>
                        <polygon fill="#450077" points="621.225,533.483 562.328,418.82 503.082,487.661 493.599,479.5 564.967,396.575 621.601,506.836 
                                671.31,416.442 710.942,459.703 701.716,468.154 673.866,437.754 			"></polygon>
                        </g>
                <path fill="#FFFFFF" d="M439.131,236.884c24.599-31.814,63.003-76.914,95.639-98.995c7.354-4.975,16.105-7.489,24.975-7.098
                        c6.364,0.281,10.104,0.619,10.104,0.619l0,0c0,0,0.011,0.014,0.032,0.043c13.753,18.633,9.259,44.937-9.82,58.064
                        c-27.265,18.76-65.685,57.221-90.073,79.502C449.202,288.011,421.908,259.158,439.131,236.884z"></path>
                </g>
        <path opacity="0.2" d="M802.835,1041.343h-32.028c29.902,0,54.143-24.24,54.143-54.142v0c0-29.902-24.241-54.143-54.143-54.143
                h-3.606c12.476-0.002,22.59-10.116,22.59-22.593c0-12.478-10.115-22.594-22.594-22.594h-16.091v-63.47h51.728
                c12.478,0,22.594-10.115,22.594-22.594s-10.115-22.594-22.594-22.594h-44.75l46.076-525.054
                c0-110.916-197.551-201.171-203.993-204.085V1150h87.47c35.053,0,63.47-28.416,63.47-63.47v0h51.728
                c12.478,0,22.594-10.115,22.594-22.593S815.313,1041.343,802.835,1041.343z"></path>
        </g>
    </svg>
